# xmcd CD database file
#
# Track frame offsets:
#	182
#	6847
#	21812
#	35312
#	48627
#	67605
#	81980
#	98435
#	115490
#	117232
#	132845
#	149315
#	163395
#	181975
#	182820
#
# Disc length: 3190 seconds
#
# Revision: 4
# Processed by: cddbd v1.5.2PL0 Copyright (c) Steve Scherf et al.
# Submitted via: CDex 1.51
#
DISCID=c60c740f
DTITLE=Beastie Boys - Paul's Boutique
DYEAR=1989
DGENRE=Rap
TTITLE0=To All The Girls
TTITLE1=Shake Your Rump
TTITLE2=Johnny Ryall
TTITLE3=Egg Man
TTITLE4=High Plains Drifter
TTITLE5=The Sounds Of Science
TTITLE6=3-Minute Rule
TTITLE7=Hey Ladies
TTITLE8=5-Piece Chicken Dinner
TTITLE9=Looking Down The Barrel Of A Gun
TTITLE10=Car Thief
TTITLE11=What Comes Around
TTITLE12=Shadrach
TTITLE13=Ask For Janice
TTITLE14=B-Boy Bouillabaisse
EXTD=YEAR: 1989
EXTT0=
EXTT1=
EXTT2=
EXTT3=
EXTT4=
EXTT5=
EXTT6=
EXTT7=
EXTT8=
EXTT9=
EXTT10=
EXTT11=
EXTT12=
EXTT13=
EXTT14=
PLAYORDER=
